<svg width="96" height="96" viewBox="0 0 96 96" fill="none" xmlns="http://www.w3.org/2000/svg">
<path d="M34.3175 23.7238C33.2563 20.1867 32.7258 18.4182 33.6255 17.209C34.5251 15.9998 36.3716 15.9998 40.0644 15.9998H55.9361C59.6289 15.9998 61.4753 15.9998 62.375 17.209C63.2747 18.4182 62.7442 20.1867 61.683 23.7238L52.4278 54.5744C52.2219 55.261 52.1189 55.6043 51.8531 55.802C51.5874 55.9998 51.229 55.9998 50.5122 55.9998H45.4883C44.7715 55.9998 44.4131 55.9998 44.1473 55.802C43.8816 55.6043 43.7786 55.261 43.5727 54.5744L34.3175 23.7238Z" stroke="#FF6363" stroke-width="6"/>
<ellipse cx="47.9998" cy="76.0002" rx="8" ry="8" stroke="#FF6363" stroke-width="6"/>
</svg>
