<?xml version="1.0" encoding="UTF-8"?>
<svg width="23px" height="19px" viewBox="0 0 23 19" version="1.1" xmlns="http://www.w3.org/2000/svg" xmlns:xlink="http://www.w3.org/1999/xlink">
    <title>Dashboard</title>
    <g id="Symbols" stroke="none" stroke-width="1" fill="none" fill-rule="evenodd">
        <g id="header_not-connected" transform="translate(-1718.000000, -19.000000)" fill="#FFFFFF">
            <g id="Group" transform="translate(54.000000, 1.000000)">
                <g transform="translate(1661.000000, 12.000000)" id="01-Foundation-/-Icon-Medium-24-(Default)-/-11-Composer-/-02-Adjustments-/-01-Adjust">
                    <path d="M17.0278333,9.66666667 C16.9601667,9.47695833 16.9166667,9.27516667 16.9166667,9.0625 C16.9166667,8.84983333 16.9601667,8.64804167 17.0278333,8.45833333 C17.2779583,7.75629167 17.9425417,7.25 18.7291667,7.25 C19.5157917,7.25 20.180375,7.75629167 20.4305,8.45833333 C20.4981667,8.64804167 20.5416667,8.84983333 20.5416667,9.0625 C20.5416667,9.27516667 20.4981667,9.47695833 20.4305,9.66666667 C20.180375,10.3687083 19.5157917,10.875 18.7291667,10.875 C17.9425417,10.875 17.2779583,10.3687083 17.0278333,9.66666667 Z M21.688375,8.45833333 C21.4080417,7.08083333 20.187625,6.04166667 18.7291667,6.04166667 C17.2707083,6.04166667 16.0502917,7.08083333 15.7699583,8.45833333 L3.625,8.45833333 L3.625,9.66666667 L15.7699583,9.66666667 C16.0502917,11.0441667 17.2707083,12.0833333 18.7291667,12.0833333 C20.187625,12.0833333 21.4080417,11.0441667 21.688375,9.66666667 L25.375,9.66666667 L25.375,8.45833333 L21.688375,8.45833333 Z M18.2361667,21.7510875 C18.1685,21.5613792 18.125,21.3595875 18.125,21.1469208 C18.125,20.9342542 18.1685,20.7324625 18.2361667,20.5427542 C18.4862917,19.8407125 19.150875,19.3344208 19.9375,19.3344208 C20.724125,19.3344208 21.3887083,19.8407125 21.6388333,20.5427542 C21.7065,20.7324625 21.75,20.9342542 21.75,21.1469208 C21.75,21.3595875 21.7065,21.5613792 21.6388333,21.7510875 C21.3887083,22.4531292 20.724125,22.9594208 19.9375,22.9594208 C19.150875,22.9594208 18.4862917,22.4531292 18.2361667,21.7510875 Z M22.8967083,20.5427542 C22.616375,19.1652542 21.3959583,18.1260875 19.9375,18.1260875 C18.4790417,18.1260875 17.258625,19.1652542 16.9782917,20.5427542 L3.625,20.5427542 L3.625,21.7510875 L16.9782917,21.7510875 C17.258625,23.1285875 18.4790417,24.1677542 19.9375,24.1677542 C21.3959583,24.1677542 22.616375,23.1285875 22.8967083,21.7510875 L25.375,21.7510875 L25.375,20.5427542 L22.8967083,20.5427542 Z M7.36116667,15.7083333 C7.2935,15.518625 7.25,15.3168333 7.25,15.1041667 C7.25,14.8915 7.2935,14.6897083 7.36116667,14.5 C7.61129167,13.7979583 8.275875,13.2916667 9.0625,13.2916667 C9.849125,13.2916667 10.5137083,13.7979583 10.7638333,14.5 C10.8315,14.6897083 10.875,14.8915 10.875,15.1041667 C10.875,15.3168333 10.8315,15.518625 10.7638333,15.7083333 C10.5137083,16.410375 9.849125,16.9166667 9.0625,16.9166667 C8.275875,16.9166667 7.61129167,16.410375 7.36116667,15.7083333 Z M12.0217083,14.5 C11.741375,13.1225 10.5209583,12.0833333 9.0625,12.0833333 C7.60404167,12.0833333 6.383625,13.1225 6.10329167,14.5 L3.625,14.5 L3.625,15.7083333 L6.10329167,15.7083333 C6.383625,17.0858333 7.60404167,18.125 9.0625,18.125 C10.5209583,18.125 11.741375,17.0858333 12.0217083,15.7083333 L25.375,15.7083333 L25.375,14.5 L12.0217083,14.5 Z" id="Color"></path>
                </g>
            </g>
        </g>
    </g>
</svg>