<svg width="96" height="96" viewBox="0 0 96 96" fill="none" xmlns="http://www.w3.org/2000/svg">
<path d="M40 76L37.8787 73.8787L35.7574 76L37.8787 78.1213L40 76ZM53.8787 57.8787L37.8787 73.8787L42.1213 78.1213L58.1213 62.1213L53.8787 57.8787ZM37.8787 78.1213L53.8787 94.1213L58.1213 89.8786L42.1213 73.8787L37.8787 78.1213Z" fill="#FFBF42"/>
<path d="M72.2487 34C74.8552 38.5145 76.1496 43.667 75.9863 48.8773C75.8229 54.0876 74.2083 59.1489 71.3242 63.4913C68.4402 67.8337 64.4011 71.2847 59.6619 73.4559C54.9227 75.627 49.6714 76.4321 44.4995 75.7804" stroke="#FFBF42" stroke-width="6" stroke-linecap="round"/>
<path d="M56 20L58.1213 22.1213L60.2426 20L58.1213 17.8787L56 20ZM42.1213 38.1213L58.1213 22.1213L53.8787 17.8787L37.8786 33.8787L42.1213 38.1213ZM58.1213 17.8787L42.1213 1.87866L37.8786 6.1213L53.8787 22.1213L58.1213 17.8787Z" fill="#FFBF42"/>
<path d="M23.7513 62C21.107 57.42 19.8139 52.1847 20.0216 46.9003C20.2293 41.6158 21.9294 36.4982 24.9249 32.1399C27.9205 27.7816 32.0892 24.3607 36.9483 22.2733C41.8075 20.1859 47.1585 19.5173 52.3819 20.3449" stroke="#FFBF42" stroke-width="6" stroke-linecap="round"/>
</svg>
