<svg width="24" height="24" viewBox="0 0 24 24" fill="none" xmlns="http://www.w3.org/2000/svg">
<path d="M20.1105 0H9.14014V14.7998H23.952V3.8294C23.952 1.72805 22.2227 0 20.1226 0C20.119 0 20.1141 0 20.1105 0V0Z" fill="currentColor"/>
<path d="M5.72002 0H3.8294C1.72925 0 0 1.72925 0 3.8294V5.72002H5.72002V0Z" fill="currentColor"/>
<path d="M0 9.13989H5.72002V14.8599H0V9.13989Z" fill="currentColor"/>
<path d="M18.2798 23.9519H20.1704C22.2718 23.9519 23.9998 22.2226 23.9998 20.1225C23.9998 20.1189 23.9998 20.114 23.9998 20.1104V18.28H18.2798V23.9519Z" fill="currentColor"/>
<path d="M9.14014 18.28H14.8602V24H9.14014V18.28Z" fill="currentColor"/>
<path d="M0 18.28V20.1706C0 22.2708 1.72925 24 3.8294 24H5.72002V18.28H0Z" fill="currentColor"/>
</svg>