<?xml version="1.0" encoding="UTF-8" standalone="no"?>
<!-- Created with Inkscape (http://www.inkscape.org/) -->

<svg
   width="200mm"
   height="200mm"
   viewBox="0 0 200 200"
   version="1.1"
   id="svg3604"
   sodipodi:docname="BabelFish-Logo.svg"
   inkscape:export-filename="C:\Users\xcprz\Desktop\BabelFish_Hyde\branding\Current\BabelFish-Logo.png"
   inkscape:export-xdpi="63.500004"
   inkscape:export-ydpi="63.500004"
   inkscape:version="1.2-dev (1d8154c6, 2021-12-02)"
   xmlns:inkscape="http://www.inkscape.org/namespaces/inkscape"
   xmlns:sodipodi="http://sodipodi.sourceforge.net/DTD/sodipodi-0.dtd"
   xmlns:xlink="http://www.w3.org/1999/xlink"
   xmlns="http://www.w3.org/2000/svg"
   xmlns:svg="http://www.w3.org/2000/svg">
  <sodipodi:namedview
     id="namedview3606"
     pagecolor="#ffffff"
     bordercolor="#666666"
     borderopacity="1.0"
     inkscape:pageshadow="2"
     inkscape:pageopacity="0.0"
     inkscape:pagecheckerboard="0"
     inkscape:blackoutopacity="0.0"
     inkscape:document-units="mm"
     showgrid="false"
     width="200mm"
     inkscape:zoom="0.30212109"
     inkscape:cx="-1630.1411"
     inkscape:cy="961.53498"
     inkscape:window-width="2560"
     inkscape:window-height="1377"
     inkscape:window-x="-8"
     inkscape:window-y="-8"
     inkscape:window-maximized="1"
     inkscape:current-layer="layer1" />
  <defs
     id="defs3601">
    <radialGradient
       inkscape:collect="always"
       xlink:href="#linearGradient40819"
       id="radialGradient31922-6-4-7-3-8"
       cx="108.34431"
       cy="213.44902"
       fx="108.34431"
       fy="213.44902"
       r="10.105834"
       gradientUnits="userSpaceOnUse"
       gradientTransform="matrix(1.395267,0.58794057,-1.6390371,3.8896644,304.0281,-679.5546)" />
    <linearGradient
       inkscape:collect="always"
       id="linearGradient40819">
      <stop
         style="stop-color:#fceab6;stop-opacity:1"
         offset="0"
         id="stop40815" />
      <stop
         style="stop-color:#ffbf42;stop-opacity:1"
         offset="1"
         id="stop40817" />
    </linearGradient>
    <linearGradient
       inkscape:collect="always"
       xlink:href="#linearGradient5433"
       id="linearGradient42211-7-0"
       gradientUnits="userSpaceOnUse"
       x1="206.12633"
       y1="77.054871"
       x2="216.69331"
       y2="77.054871" />
    <linearGradient
       inkscape:collect="always"
       id="linearGradient5433">
      <stop
         style="stop-color:#be7a04;stop-opacity:1"
         offset="0"
         id="stop5429" />
      <stop
         style="stop-color:#eeba11;stop-opacity:1"
         offset="1"
         id="stop5431" />
    </linearGradient>
    <radialGradient
       inkscape:collect="always"
       xlink:href="#linearGradient40819"
       id="radialGradient32076-2-9-6-4-0"
       gradientUnits="userSpaceOnUse"
       gradientTransform="matrix(2.9016325,6.042467,-91.367886,43.875425,8721.4506,-4682.3626)"
       cx="153.58441"
       cy="96.830353"
       fx="153.58441"
       fy="96.830353"
       r="5.2834949" />
    <radialGradient
       inkscape:collect="always"
       xlink:href="#linearGradient5433"
       id="radialGradient5437-8-9-5-8-7-2-4-1-1-8-2-22-1-3-0-1"
       cx="69.803192"
       cy="331.40955"
       fx="69.803192"
       fy="331.40955"
       r="51.42268"
       gradientTransform="matrix(1.2020585,0.11793428,-0.14532154,1.0487741,34.042363,-24.345947)"
       gradientUnits="userSpaceOnUse" />
  </defs>
  <g
     inkscape:label="Warstwa 1"
     inkscape:groupmode="layer"
     id="layer1">
    <g
       id="g4458-9-6-9-0-3-2-1"
       transform="matrix(9.8952748,0,0,9.8952748,-988.48023,-1978.0077)"
       inkscape:export-filename="C:\Users\xcprz\Desktop\BabelFish_Hyde\branding\BF_Logotype_large_v2.png"
       inkscape:export-xdpi="180.52855"
       inkscape:export-ydpi="180.52855">
      <path
         id="path6361-5-7-3-6-3-3-6-3-6-7-3-6-9-4-7-8-9-8-9-6"
         style="fill:url(#radialGradient31922-6-4-7-3-8);fill-opacity:1;stroke:none;stroke-width:0.213908;stroke-miterlimit:4;stroke-dasharray:none;stroke-opacity:1"
         inkscape:transform-center-x="140.57174"
         inkscape:transform-center-y="-54.664163"
         d="M 110,199.89417 A 10.105847,10.105846 0 0 0 99.894167,210 10.105847,10.105846 0 0 0 110,220.10584 10.105847,10.105846 0 0 0 120.10584,210 10.105847,10.105846 0 0 0 110,199.89417 Z m 0,0.63156 A 9.4742315,9.4742301 0 0 1 119.47421,210 9.4742315,9.4742301 0 0 1 110,219.4742 9.4742315,9.4742301 0 0 1 100.52574,210 9.4742315,9.4742301 0 0 1 110,200.52573 Z" />
      <g
         id="g4365-4-9-3-2-7-3-3"
         transform="translate(48.503502,30.286179)">
        <g
           transform="matrix(0.2399564,0,0,0.2399564,51.028592,168.07849)"
           id="g7866-5-0-6-2-4-9-6-9-1-0-62-5-9-6-1">
          <g
             aria-label="$"
             transform="matrix(0.61804753,0,0,0.73449466,2.357747,-194.00449)"
             id="text857-7-20-1-8-8-6-8-9-8-4-8-5-7-82-9-3-9-6"
             style="font-style:normal;font-variant:normal;font-weight:normal;font-stretch:normal;font-size:54.6526px;line-height:1.25;font-family:Unispace;-inkscape-font-specification:'Unispace, Normal';font-variant-ligatures:normal;font-variant-caps:normal;font-variant-numeric:normal;font-variant-east-asian:normal;fill:#fffe9b;fill-opacity:1;stroke:#fbe300;stroke-width:0;stroke-miterlimit:4;stroke-dasharray:none;stroke-opacity:1" />
          <g
             transform="matrix(0.60383754,0,0,0.60383754,-64.036887,-2.917029)"
             style="font-size:87.9724px;line-height:1.25;font-family:'Century Gothic';-inkscape-font-specification:'Century Gothic';fill:#fffe9b;fill-opacity:1;stroke:#fbe300;stroke-width:0;stroke-miterlimit:4;stroke-dasharray:none;stroke-opacity:1"
             id="text861-6-4-6-02-6-9-1-5-9-5-5-1-6-4-0-8-9-4"
             aria-label="." />
          <g
             aria-label="."
             id="text861-6-3-8-9-3-9-87-9-4-3-5-3-1-1-0-4-0-3-8"
             style="font-size:87.9724px;line-height:1.25;font-family:'Century Gothic';-inkscape-font-specification:'Century Gothic';fill:url(#linearGradient42211-7-0);fill-opacity:1;stroke:none;stroke-width:0;stroke-miterlimit:4;stroke-dasharray:none;stroke-opacity:1"
             transform="matrix(0.60383754,0,0,0.60383754,-63.877077,-2.846434)">
            <path
               id="path3294-0-5-0-30-7-7-8-7-3-6-9-0-2-35-4-9-1-7"
               style="fill:url(#radialGradient32076-2-9-6-4-0);fill-opacity:1;stroke:none;stroke-width:0;stroke-miterlimit:4;stroke-dasharray:none;stroke-opacity:1"
               d="m 374.75,378.88281 v 0.002 c -2.29924,0.002 -4.7206,0.0625 -6.17188,0.0625 -1.81019,0 -3.24549,0.0625 -4.30664,0.1875 -1.06115,0.0626 -1.90314,0.21837 -2.52734,0.46875 -0.56178,0.1876 -1.00041,0.49951 -1.3125,0.9375 -0.31211,0.37544 -0.62345,0.8139 -0.93555,1.31445 L 333.6543,427.28125 307.625,381.85547 c -0.37452,-0.50055 -0.71721,-0.93901 -1.0293,-1.31445 -0.3121,-0.43799 -0.81142,-0.74978 -1.49804,-0.9375 -0.68663,-0.25029 -1.62456,-0.40619 -2.81055,-0.46875 -1.18599,-0.12523 -2.71527,-0.1875 -4.58789,-0.1875 -2.18472,0 -3.90198,0.0625 -5.15039,0.1875 -1.24841,0.12522 -2.11978,0.43695 -2.61914,0.9375 -0.49936,0.43798 -0.65602,1.09473 -0.46875,1.9707 0.24968,0.81342 0.749,1.90862 1.49804,3.28515 l 31.55274,53.9668 -33.05078,55.84375 c -0.81147,1.37652 -1.31078,2.47176 -1.49805,3.28516 -0.12484,0.8134 0.0318,1.47013 0.46875,1.9707 0.49937,0.43792 1.34135,0.71855 2.52734,0.84375 1.186,0.18783 2.80927,0.28125 4.86914,0.28125 1.87262,0 3.37057,-0.0623 4.49415,-0.1875 1.12356,-0.0626 1.99689,-0.18714 2.62109,-0.375 0.68662,-0.25026 1.21727,-0.56208 1.5918,-0.9375 0.37452,-0.37542 0.71719,-0.84509 1.02929,-1.4082 l 27.24805,-48.33594 26.96484,48.33594 c 0.24969,0.56311 0.5297,1.03278 0.8418,1.4082 0.37453,0.31283 0.87384,0.59349 1.49805,0.84375 0.68662,0.25033 1.59323,0.40614 2.71679,0.46875 1.12358,0.12522 2.68419,0.1875 4.68164,0.1875 1.17484,0 43.79202,1.69183 72.00782,-7.80859 22.81158,-7.68079 40.1457,-25.8794 39.90625,-60.14844 -0.48643,-29.77802 -27.4189,-41.0876 -28.06836,-41.43359 -20.98265,-13.2388 -55.86859,-12.04368 -76.39258,-13.22266 -0.69896,-0.0156 -1.45234,-0.0237 -2.21875,-0.0234 z m 13.65234,14.12305 c 4.321,0.0134 5.19895,0.0756 9.9668,0.23047 0.002,7e-5 0.004,-7e-5 0.006,0 v 8.94531 h -9.50586 c -4.25044,0 -7.54021,1.91496 -9.87109,5.74414 -2.33089,3.74772 -3.4961,7.54807 -3.4961,13.98438 0,3.09594 0.30879,4.77737 0.92578,7.6289 0.61701,2.77005 1.47343,5.25337 2.57032,7.45313 1.16543,2.11827 2.50154,3.82926 4.00976,5.13281 1.50822,1.30355 3.18806,1.95508 5.03907,1.95508 H 398.375 v 25.54297 h -19.38086 c -2.06893,0 -2.32735,0.75217 -2.41992,2.49804 v 2.49219 c 0.20351,2.16271 0.37795,3.03985 2.99414,3.19727 H 398.375 v 9.53125 c -16.07353,0.59817 -26.23828,0.24804 -26.23828,0.24804 l -28.3711,-48.66992 26.82618,-45.69726 c 0,0 7.72295,-0.24685 17.81054,-0.2168 z m 17.99414,0.58984 c 6.67338,0.38969 16.76112,1.01497 21.25977,1.99805 5.25652,1.1487 39.2268,5.67312 39.0625,41.9707 0.40603,39.68507 -36.08611,47.80284 -60.26563,49.38477 -0.0189,10e-4 -0.0566,0.0249 -0.0566,0.006 v -9.14453 h 12.89844 c 1.7139,0 3.25584,-0.52877 4.62696,-1.58789 1.3711,-1.14061 2.50136,-2.64762 3.39257,-4.52149 0.95978,-1.95533 1.68026,-4.23664 2.16016,-6.84375 0.54844,-2.68859 0.82227,-4.28882 0.82227,-7.38476 0,-3.17743 -0.27383,-4.9004 -0.82227,-7.75196 -0.4799,-2.85153 -1.23338,-5.37641 -2.26172,-7.57617 -0.95978,-2.19976 -2.12692,-3.95035 -3.49805,-5.25391 -1.30256,-1.30355 -2.77458,-1.95507 -4.41992,-1.95507 h -12.89844 v -24.44141 h 17.37305 c 1.75012,-0.13573 2.42451,-0.77675 2.88477,-2.89453 v -2.78125 c -0.3392,-1.0869 -0.4147,-2.21659 -2.75,-2.63477 h -17.50782 z m -13.4414,16.82813 c 0.19221,-0.007 0.38921,0.0152 0.58789,0.0684 h 4.83203 v 24.4414 h -4.83203 c -1.64533,0 -2.98338,-1.13868 -4.01172,-3.41992 -0.95977,-2.36268 -1.43945,-5.2559 -1.43945,-8.67773 0,-3.66626 0.47968,-6.64066 1.43945,-8.92188 0.8998,-1.99606 2.07832,-3.44415 3.42383,-3.49023 z m 46.74219,2.23633 c -2.68484,0 -4.97592,0.94662 -6.8711,2.84179 -1.89518,1.89518 -2.84179,4.21175 -2.84179,6.94922 -10e-6,2.68483 0.94661,5.0014 2.84179,6.94922 1.89518,1.89518 4.18626,2.8418 6.8711,2.8418 2.68481,0 4.97395,-0.94662 6.86914,-2.8418 1.89518,-1.94782 2.84375,-4.26439 2.84375,-6.94922 0,-2.73747 -0.94857,-5.05404 -2.84375,-6.94922 -1.89519,-1.89517 -4.18433,-2.84179 -6.86914,-2.84179 z m -33.30079,31.41992 h 5.6543 c 1.02832,0 1.92166,0.3683 2.67578,1.10156 0.82267,0.73324 1.50818,1.7115 2.05664,2.93359 0.54845,1.14061 0.9582,2.48327 1.23242,4.03125 0.27417,1.54799 0.41211,3.13619 0.41211,4.76563 0,3.42183 -0.58259,6.39623 -1.74804,8.92187 -1.09689,2.52565 -2.64081,3.78907 -4.62891,3.78907 h -5.6543 z"
               transform="matrix(0.54397434,0,0,0.54397434,-27.77403,-153.79921)" />
          </g>
          <g
             style="font-style:normal;font-variant:normal;font-weight:normal;font-stretch:normal;font-size:54.6526px;line-height:1.25;font-family:Unispace;-inkscape-font-specification:'Unispace, Normal';font-variant-ligatures:normal;font-variant-caps:normal;font-variant-numeric:normal;font-variant-east-asian:normal;fill:#290f0a;fill-opacity:1;stroke:#fbe300;stroke-width:0;stroke-miterlimit:4;stroke-dasharray:none;stroke-opacity:1"
             id="text857-7-20-3-1-5-8-5-5-1-3-3-7-4-5-06-3-9-4-8"
             transform="matrix(0.61938204,0,0,0.73951519,3.160681,-194.9681)"
             aria-label="$" />
          <g
             style="font-style:normal;font-variant:normal;font-weight:normal;font-stretch:normal;font-size:54.6526px;line-height:1.25;font-family:Unispace;-inkscape-font-specification:'Unispace, Normal';font-variant-ligatures:normal;font-variant-caps:normal;font-variant-numeric:normal;font-variant-east-asian:normal;fill:url(#radialGradient5437-8-9-5-8-7-2-4-1-1-8-2-22-1-3-0-1);fill-opacity:1;stroke:none;stroke-width:0;stroke-miterlimit:4;stroke-dasharray:none;stroke-opacity:1"
             id="text857-7-2-0-8-24-9-52-4-9-2-5-8-3-8-07-4-4-6-6"
             transform="matrix(0.61804753,0,0,0.73449466,3.120878,-194.37646)"
             aria-label="$" />
        </g>
      </g>
    </g>
  </g>
</svg>
