<svg xmlns="http://www.w3.org/2000/svg" width="40" height="40" viewBox="0 0 40 40">
    <defs>
        <linearGradient id="rwmiothdya" x1="0%" x2="100%" y1="100%" y2="2.399%">
            <stop offset="0%" stop-color="#FFF"/>
            <stop offset="100%" stop-color="#32F05F"/>
        </linearGradient>
    </defs>
    <g fill="none" fill-rule="evenodd">
        <g>
            <g>
                <g>
                    <path fill="#FFF" d="M23.553 22.9c0-.52.008-1.041-.004-1.561-.004-.196.046-.267.264-.275.917-.035 1.264.238 1.435 1.133.129.668.098 1.319-.168 1.95-.215.512-.923.79-1.434.579-.146-.06-.089-.174-.09-.265-.006-.52-.003-1.041-.003-1.561m7.756.084c-.757 1.672-2.143 2.634-3.865 3.21-1.175.394-2.4.463-3.623.555-.314.024-.291-.156-.262-.331.031-.184-.18-.502.278-.482.533.023 1.068-.006 1.602.008.615.016 1.045-.25 1.326-.77.344-.633.468-1.318.494-2.025.035-.984-.051-1.947-.496-2.85-.3-.612-.729-1.002-1.496-.928-.463.044-.934-.005-1.401.013-.243.01-.328-.054-.318-.301.02-.494.005-.989.005-1.483 0-.416.026-.835-.007-1.248-.03-.374.054-.524.484-.494.624.043 1.254.014 1.882.01.503-.003.629-.135.627-.637-.002-.45-.143-.585-.636-.588-.694-.004-1.389-.008-2.083.003-.208.004-.292-.053-.27-.261.016-.155.003-.312.003-.468 0-.564 0-.57.565-.532 1.785.117 3.514.421 5.048 1.406 1.804 1.158 2.663 2.81 2.734 4.883.038 1.143-.114 2.257-.59 3.31m-9.02-8.414c-.167.221-.65.085-.988.065-1.324-.078-2.137.344-2.45 2.135-.172.983-.087 1.97.288 2.918.125.319.296.608.52.87.29.34.65.525 1.114.514.428-.011.856.007 1.283-.006.215-.006.305.042.302.277-.012 1.041-.013 2.083 0 3.124.004.242-.099.27-.306.268-.802-.009-1.604-.002-2.406-.004-.296-.001-.516.04-.515.42.002.638.054.774.496.784.801.018 1.604.018 2.406 0 .272-.006.33.082.326.329-.011.552.002.556-.565.562-1.016.01-2.031.009-3.047.028-.243.004-.38-.071-.503-.28-1.288-2.17-2.586-4.334-3.89-6.495-.119-.196-.11-.338.006-.529 1.222-2.011 2.438-4.027 3.647-6.046.115-.193.24-.274.472-.268.588.016 1.176.005 1.764.005v.046c.614 0 1.23.006 1.843-.003.204-.003.285.056.271.266-.024.348.107.79-.068 1.02m.064 3.029c0 .507-.009 1.014.004 1.52.006.206-.064.26-.273.265-.73.016-.942-.121-1.126-.822-.186-.708-.172-1.418.064-2.112.183-.536.672-.749 1.218-.581.16.049.11.158.11.248.006.494.003.988.003 1.482m11.72 1.64l-.016-.39-.209-1.015-.04-.219-.445-1.11-.107-.236-.719-1.09-.262-.307c-.423-.42-.874-.81-1.346-1.178l-.832-.533c-.992-.498-2.012-.933-3.102-1.184-.72-.167-1.446-.31-2.17-.464l-.391-.034c-1.597-.196-3.2-.297-4.81-.295l-1.287-.004c-.355-.028-.71-.063-1.068-.066-.393-.003-.692.144-.884.485-.16.284-.335.559-.49.846-.086.216-.223.404-.34.603-.288.515-.59 1.023-.895 1.528-.091.178-.186.354-.307.514-.246.47-.536.915-.794 1.378-.056.114-.133.215-.198.323-.208.377-.395.767-.677 1.129-.26-.462-.51-.873-.75-1.29-.06-.113-.124-.225-.195-.331-.284-.513-.608-1.002-.88-1.521-.12-.162-.216-.336-.306-.514-.279-.455-.542-.918-.815-1.375-.089-.15-.188-.294-.263-.45-.144-.276-.317-.536-.467-.809-.202-.366-.507-.544-.94-.516-.369.023-.737.046-1.107.055-.305.08-.743-.092-.822.414l.475.938.18.311.62 1.016.179.313c.244.349.471.708.652 1.092.11.113.19.243.237.392.298.425.563.868.798 1.328.11.114.185.25.24.396.32.479.623.967.885 1.48.137.164.253.342.325.544.398.573.387.374-.085 1.098l-.182.312-.622 1.013-.15.242c-.185.38-.408.736-.653 1.08-.025.098-.074.181-.154.247-.204.414-.449.805-.719 1.182-.023.12-.097.21-.176.298-.226.437-.483.856-.765 1.26l-.28.458-.94 1.567c-.005.153-.123.291-.062.453.304.284.691.212 1.057.245.831.076 1.544-.061 1.877-.931.12-.035.165-.14.223-.233.19-.324.37-.653.556-.979.07-.104.132-.213.192-.324.19-.302.349-.621.531-.927.07-.105.132-.215.192-.325.205-.338.392-.686.605-1.02.056-.11.108-.223.173-.33.192-.302.352-.622.55-.922.063-.127.124-.256.2-.377.178-.24.275-.53.484-.777.209.309.383.611.54.923.065.108.14.21.197.32.21.398.444.783.676 1.169.047.076.085.156.126.236.176.332.393.642.552.983.059.089.121.175.17.27.16.34.391.64.547.982.053.094.108.186.168.275.178.308.344.622.53.925.062.11.114.23.245.283.235.5.592.816 1.198.777.159-.01.32.003.48.002l2.879-.011.065.006c.202-.001.4.037.601.04.972.023 1.937-.022 2.882-.272 1.045-.185 2.093-.354 3.114-.65l.653-.202 1.445-.623.477-.252 1.286-.903.388-.34c.408-.442.788-.907 1.135-1.397l.235-.396.554-1.332.11-.463.225-1.25.013-.392V19.24" transform="translate(-98 -67) translate(98 60) translate(0 7)"/>
                    <path fill="#FFF" d="M28.16 15.556c-.83-.01-1.49.635-1.493 1.459-.004.826.642 1.491 1.46 1.503.805.012 1.493-.661 1.503-1.471.01-.82-.644-1.483-1.47-1.491" transform="translate(-98 -67) translate(98 60) translate(0 7)"/>
                    <path fill="url(#rwmiothdya)" fill-rule="nonzero" d="M20 0C8.954 0 0 8.954 0 20s8.954 20 20 20 20-8.954 20-20S31.046 0 20 0zm0 1.521c10.206 0 18.479 8.273 18.479 18.479S30.206 38.479 20 38.479 1.521 30.206 1.521 20 9.794 1.521 20 1.521z" transform="translate(-98 -67) translate(98 60) translate(0 7)"/>
                </g>
            </g>
        </g>
    </g>
</svg>
