<svg width="30" height="20" viewBox="0 0 30 20" fill="none" xmlns="http://www.w3.org/2000/svg">
<path d="M13.2565 0.881541C12.916 0.881872 12.5576 0.890817 12.3427 0.890817C12.0747 0.890817 11.8621 0.900155 11.705 0.918663C11.5479 0.927934 11.4231 0.951076 11.3307 0.988148C11.2475 1.01593 11.1828 1.06213 11.1366 1.12698C11.0904 1.18257 11.0443 1.24754 10.998 1.32165L7.1717 8.04754L3.31766 1.32167C3.2622 1.24756 3.21139 1.18259 3.16518 1.127C3.11897 1.06215 3.04503 1.01596 2.94337 0.988169C2.8417 0.95111 2.70304 0.927947 2.52744 0.918683C2.35183 0.900143 2.12532 0.890837 1.84806 0.890837C1.52458 0.890837 1.27039 0.900176 1.08555 0.918683C0.9007 0.937224 0.771407 0.98354 0.697469 1.05765C0.623532 1.1225 0.600397 1.21968 0.628124 1.34938C0.665094 1.46982 0.739035 1.63195 0.849943 1.83577L5.52192 9.82631L0.628124 18.0948C0.507974 18.2986 0.434032 18.4607 0.406305 18.5812C0.38782 18.7016 0.410949 18.7988 0.47565 18.8729C0.549588 18.9378 0.674339 18.9794 0.849943 18.998C1.02555 19.0258 1.26582 19.0397 1.57082 19.0397C1.84809 19.0397 2.06991 19.0304 2.23627 19.0119C2.40264 19.0026 2.53207 18.9841 2.62449 18.9563C2.72616 18.9193 2.80464 18.8729 2.8601 18.8174C2.91555 18.7618 2.96636 18.6923 3.01257 18.6089L7.04694 11.4522L11.0395 18.6089C11.0765 18.6923 11.1181 18.7618 11.1643 18.8174C11.2198 18.8637 11.2937 18.9054 11.3861 18.9424C11.4878 18.9795 11.6219 19.0026 11.7883 19.0119C11.9546 19.0304 12.1857 19.0397 12.4814 19.0397C12.6554 19.0397 18.9654 19.2902 23.1432 17.8835C26.5208 16.7463 29.0876 14.0517 29.0521 8.97763C28.9801 4.56855 24.9921 2.89398 24.896 2.84275C21.7892 0.882552 16.6238 1.05935 13.5849 0.884785C13.4814 0.882467 13.3699 0.881437 13.2565 0.88147V0.881541ZM15.278 2.97258C15.9178 2.97457 16.0477 2.98384 16.7537 3.00676C16.7539 3.00677 16.7542 3.00675 16.7545 3.00676V4.3312H15.3472C14.7178 4.3312 14.2306 4.61466 13.8854 5.18162C13.5403 5.73653 13.3678 6.29918 13.3678 7.25217C13.3678 7.71057 13.4135 7.95949 13.5048 8.38171C13.5962 8.79185 13.723 9.15975 13.8854 9.48545C14.058 9.7991 14.256 10.0524 14.4793 10.2454C14.7026 10.4384 14.9513 10.5349 15.2253 10.5349H16.7545V14.3168H13.8848C13.5784 14.3168 13.5404 14.4281 13.5267 14.6866V15.0558C13.5568 15.376 13.5827 15.5058 13.97 15.5291H16.7545V16.9403C14.3746 17.0288 12.8696 16.9771 12.8696 16.9771L8.66887 9.77075L12.6409 3.00451C12.6409 3.00451 13.7844 2.96814 15.278 2.97259V2.97258ZM17.9422 3.05979C18.9303 3.11749 20.4239 3.21017 21.09 3.35573C21.8683 3.52582 26.8981 4.19569 26.8738 9.57009C26.9339 15.4461 21.5307 16.6481 17.9505 16.8823C17.9477 16.8825 17.9422 16.8858 17.9422 16.883V15.5292H19.852C20.1058 15.5292 20.3341 15.4507 20.5371 15.2939C20.7402 15.125 20.9076 14.902 21.0396 14.6245C21.1817 14.335 21.2882 13.9972 21.3593 13.6112C21.4405 13.2131 21.4811 12.9762 21.4811 12.5178C21.4811 12.0474 21.4405 11.7924 21.3593 11.3701C21.2882 10.9479 21.1766 10.574 21.0244 10.2482C20.8823 9.92254 20.7096 9.66328 20.5066 9.47027C20.3138 9.27726 20.0956 9.18079 19.852 9.18079H17.9422V5.56179H20.5144C20.7736 5.54169 20.8735 5.44705 20.9416 5.13348V4.72163C20.8914 4.5607 20.8803 4.39322 20.5346 4.3313H17.9422V3.05979ZM16.039 5.56168H16.7545V9.18069H16.039C15.7954 9.18069 15.5974 9.01181 15.4451 8.67403C15.303 8.3242 15.2319 7.89592 15.2319 7.38926C15.2319 6.84642 15.303 6.40611 15.4451 6.06834C15.5974 5.73057 15.8036 5.49874 16.039 5.56168ZM17.9422 10.5349H18.7796C18.9318 10.5349 19.0639 10.5892 19.1755 10.6978C19.2973 10.8064 19.3988 10.9512 19.48 11.1322C19.5613 11.301 19.6222 11.5 19.6628 11.7292C19.7034 11.9584 19.7237 12.1937 19.7237 12.4349C19.7237 12.9416 19.6373 13.3819 19.4647 13.7559C19.3023 14.1298 19.0739 14.3168 18.7796 14.3168H17.9422V10.5349Z" fill="url(#paint0_radial_2_1590)"/>
<defs>
<radialGradient id="paint0_radial_2_1590" cx="0" cy="0" r="1" gradientUnits="userSpaceOnUse" gradientTransform="translate(5.13689 17.9468) rotate(64.3495) scale(5.24377 79.3056)">
<stop stop-color="#FCEAB6"/>
<stop offset="1" stop-color="#FFBF42"/>
</radialGradient>
</defs>
</svg>
