<?xml version="1.0" encoding="UTF-8" standalone="no"?>
<!-- Created with Inkscape (http://www.inkscape.org/) -->

<svg
   width="1200"
   height="420"
   viewBox="0 0 317.49999 111.125"
   version="1.1"
   id="svg5175"
   inkscape:version="1.2-dev (1d8154c6, 2021-12-02)"
   sodipodi:docname="Maintenance-Mode.svg"
   inkscape:export-filename="C:\Users\xcprz\Desktop\BabelFish_Hyde\Announcements\Maintenance_Mode.png"
   inkscape:export-xdpi="96"
   inkscape:export-ydpi="96"
   xmlns:inkscape="http://www.inkscape.org/namespaces/inkscape"
   xmlns:sodipodi="http://sodipodi.sourceforge.net/DTD/sodipodi-0.dtd"
   xmlns:xlink="http://www.w3.org/1999/xlink"
   xmlns="http://www.w3.org/2000/svg"
   xmlns:svg="http://www.w3.org/2000/svg">
  <sodipodi:namedview
     id="namedview5177"
     pagecolor="#ffffff"
     bordercolor="#666666"
     borderopacity="1.0"
     inkscape:pageshadow="2"
     inkscape:pageopacity="0.0"
     inkscape:pagecheckerboard="0"
     inkscape:blackoutopacity="0.0"
     inkscape:document-units="mm"
     showgrid="false"
     units="px"
     inkscape:zoom="0.61647026"
     inkscape:cx="360.92577"
     inkscape:cy="678.86487"
     inkscape:window-width="2560"
     inkscape:window-height="1377"
     inkscape:window-x="-8"
     inkscape:window-y="1072"
     inkscape:window-maximized="1"
     inkscape:current-layer="layer1" />
  <defs
     id="defs5172">
    <linearGradient
       inkscape:collect="always"
       xlink:href="#linearGradient21624"
       id="linearGradient5065"
       gradientUnits="userSpaceOnUse"
       gradientTransform="matrix(2.3714061,0,0,3.3835939,-46.877379,-471.91939)"
       x1="86.245819"
       y1="171.81947"
       x2="152.01601"
       y2="141.93333" />
    <linearGradient
       inkscape:collect="always"
       id="linearGradient21624">
      <stop
         style="stop-color:#212020;stop-opacity:1;"
         offset="0"
         id="stop21620" />
      <stop
         style="stop-color:#5c5443;stop-opacity:1;"
         offset="1"
         id="stop21622" />
    </linearGradient>
  </defs>
  <g
     inkscape:label="Warstwa 1"
     inkscape:groupmode="layer"
     id="layer1">
    <rect
       style="opacity:0.748214;fill:url(#linearGradient5065);fill-opacity:1;stroke:#ffbf42;stroke-width:0.90494;stroke-linecap:round;stroke-linejoin:round;stroke-miterlimit:4;stroke-dasharray:none;stroke-opacity:1;paint-order:markers fill stroke"
       id="rect1611-7-7"
       width="316.59506"
       height="110.22006"
       x="0.45246953"
       y="0.45246953"
       ry="3.2340391" />
    <g
       aria-label="  Maintenance Mode     "
       id="text35057-4"
       style="font-size:12.7696px;line-height:1.25;font-family:Archive;-inkscape-font-specification:Archive;text-align:center;text-anchor:middle;stroke-width:0.684084"
       inkscape:transform-center-y="45.639647"
       transform="matrix(2.4181034,0,0,2.4167988,38.813337,36.500897)"
       inkscape:transform-center-x="-2.344071e-06">
      <path
         d="m 13.040116,-4.307836 h -1.225882 c -0.421397,0 -0.485245,0.2809312 -0.574632,0.4341664 L 9.4773974,-0.73234805 7.7279623,-3.8736696 C 7.6258055,-4.0269048 7.5747271,-4.307836 7.1405607,-4.307836 H 5.8763703 c -0.2937008,0 -0.3703184,0.1404656 -0.3703184,0.3703184 v 7.6745295 c 0,0.2937008 0.1404656,0.3703184 0.3703184,0.3703184 h 1.2641904 c 0.2298528,0 0.3703184,-0.076618 0.3703184,-0.3703184 V -0.59188245 L 8.8006086,1.6427975 c 0.063848,0.1021568 0.1660048,0.2681616 0.3575488,0.2681616 h 0.63848 c 0.191544,0 0.3064706,-0.1660048 0.3703186,-0.2681616 l 1.27696,-2.23467995 V 3.7370119 c 0,0.2937008 0.140465,0.3703184 0.370318,0.3703184 h 1.225882 c 0.229853,0 0.370318,-0.076618 0.370318,-0.3703184 v -7.6745295 c 0,-0.2298528 -0.07662,-0.3703184 -0.370318,-0.3703184 z"
         style="fill:#ffffff"
         id="path5078" />
      <path
         d="M 22.527931,3.7497815 19.70585,-3.8992088 c -0.114927,-0.2681616 -0.242623,-0.3958576 -0.523554,-0.3958576 h -1.225882 c -0.280931,0 -0.421396,0.127696 -0.523553,0.3958576 L 14.59801,3.7497815 c -0.06385,0.1532352 -0.06385,0.3575488 0.217083,0.3575488 h 1.340808 c 0.280931,0 0.383088,-0.076618 0.485245,-0.383088 l 0.357548,-1.0087984 h 3.128552 l 0.357549,1.0087984 c 0.102157,0.3064704 0.204314,0.383088 0.485245,0.383088 h 1.340808 c 0.280931,0 0.280931,-0.2043136 0.217083,-0.3575488 z m -4.916296,-2.82208156 0.95772,-2.82208154 0.95772,2.82208154 z"
         style="fill:#ffffff"
         id="path5080" />
      <path
         d="M 27.31654,2.3578951 H 26.512055 V -2.520092 h 0.766176 c 0.293701,0 0.370318,-0.1404656 0.370318,-0.3703184 V -3.924748 c 0,-0.2298528 -0.07662,-0.3703184 -0.370318,-0.3703184 h -3.549949 c -0.293701,0 -0.370318,0.1404656 -0.370318,0.3703184 v 1.0343376 c 0,0.2298528 0.07662,0.3703184 0.370318,0.3703184 h 0.778946 v 4.8779871 h -0.804485 c -0.293701,0 -0.370318,0.1404656 -0.370318,0.3703184 v 1.0087984 c 0,0.2298528 0.07662,0.3703184 0.370318,0.3703184 h 3.613797 c 0.293701,0 0.370318,-0.1404656 0.370318,-0.3703184 V 2.7282135 c 0,-0.2298528 -0.07662,-0.3703184 -0.370318,-0.3703184 z"
         style="fill:#ffffff"
         id="path5082" />
      <path
         d="m 35.782787,-4.2950664 h -1.225882 c -0.229853,0 -0.370318,0.076618 -0.370318,0.3703184 V 0.50630315 L 31.479432,-3.8609 C 31.313427,-4.116292 31.22404,-4.2950664 30.9048,-4.2950664 h -1.200343 c -0.293701,0 -0.370318,0.1404656 -0.370318,0.3703184 v 7.6617599 c 0,0.2937008 0.140465,0.3703184 0.370318,0.3703184 h 1.264191 c 0.229852,0 0.370318,-0.076618 0.370318,-0.3703184 v -4.44382075 l 2.707155,4.37997275 c 0.166005,0.255392 0.255392,0.4341664 0.574632,0.4341664 h 1.162034 c 0.2937,0 0.370318,-0.1404656 0.370318,-0.3703184 V -3.924748 c 0,-0.2937008 -0.140466,-0.3703184 -0.370318,-0.3703184 z"
         style="fill:#ffffff"
         id="path5084" />
      <path
         d="m 43.725469,-4.2950664 h -5.925094 c -0.293701,0 -0.370319,0.1404656 -0.370319,0.3703184 v 1.0598768 c 0,0.2298528 0.07662,0.3703184 0.370319,0.3703184 h 1.966518 v 6.2315647 c 0,0.2937008 0.140466,0.3703184 0.370319,0.3703184 h 1.26419 c 0.229853,0 0.370318,-0.076618 0.370318,-0.3703184 v -6.2315647 h 1.953749 c 0.293701,0 0.370319,-0.1404656 0.370319,-0.3703184 V -3.924748 c 0,-0.2298528 -0.07662,-0.3703184 -0.370319,-0.3703184 z"
         style="fill:#ffffff"
         id="path5086" />
      <path
         d="M 51.463839,2.3195863 H 47.390336 V 0.63399915 h 3.422253 c 0.293701,0 0.370319,-0.1404656 0.370319,-0.3703184 v -0.9960288 c 0,-0.22985279 -0.07662,-0.37031835 -0.370319,-0.37031835 h -3.422253 v -1.3918864 h 3.85642 c 0.2937,0 0.370318,-0.1404656 0.370318,-0.3703184 V -3.924748 c 0,-0.2298528 -0.07662,-0.3703184 -0.370318,-0.3703184 h -5.503698 c -0.293701,0 -0.370318,0.1404656 -0.370318,0.3703184 v 7.6617599 c 0,0.2298528 0.07662,0.3703184 0.370318,0.3703184 h 5.720781 c 0.293701,0 0.370318,-0.1404656 0.370318,-0.3703184 V 2.6899047 c 0,-0.2298528 -0.07662,-0.3703184 -0.370318,-0.3703184 z"
         style="fill:#ffffff"
         id="path5088" />
      <path
         d="m 59.827937,-4.2950664 h -1.225881 c -0.229853,0 -0.370319,0.076618 -0.370319,0.3703184 V 0.50630315 L 55.524582,-3.8609 C 55.358577,-4.116292 55.26919,-4.2950664 54.94995,-4.2950664 h -1.200342 c -0.293701,0 -0.370319,0.1404656 -0.370319,0.3703184 v 7.6617599 c 0,0.2937008 0.140466,0.3703184 0.370319,0.3703184 h 1.26419 c 0.229853,0 0.370319,-0.076618 0.370319,-0.3703184 v -4.44382075 l 2.707155,4.37997275 c 0.166005,0.255392 0.255392,0.4341664 0.574632,0.4341664 h 1.162033 c 0.293701,0 0.370319,-0.1404656 0.370319,-0.3703184 V -3.924748 c 0,-0.2937008 -0.140466,-0.3703184 -0.370319,-0.3703184 z"
         style="fill:#ffffff"
         id="path5090" />
      <path
         d="M 69.315738,3.7497815 66.493656,-3.8992088 C 66.37873,-4.1673704 66.251034,-4.2950664 65.970103,-4.2950664 h -1.225882 c -0.280931,0 -0.421397,0.127696 -0.523554,0.3958576 l -2.834851,7.6489903 c -0.06385,0.1532352 -0.06385,0.3575488 0.217083,0.3575488 h 1.340808 c 0.280932,0 0.383088,-0.076618 0.485245,-0.383088 l 0.357549,-1.0087984 h 3.128552 l 0.357549,1.0087984 c 0.102157,0.3064704 0.204313,0.383088 0.485245,0.383088 h 1.340808 c 0.280931,0 0.280931,-0.2043136 0.217083,-0.3575488 z m -4.916296,-2.82208156 0.95772,-2.82208154 0.95772,2.82208154 z"
         style="fill:#ffffff"
         id="path5092" />
      <path
         d="m 76.90089,-4.2950664 h -1.225882 c -0.229853,0 -0.370318,0.076618 -0.370318,0.3703184 V 0.50630315 L 72.597535,-3.8609 C 72.43153,-4.116292 72.342143,-4.2950664 72.022903,-4.2950664 H 70.82256 c -0.293701,0 -0.370318,0.1404656 -0.370318,0.3703184 v 7.6617599 c 0,0.2937008 0.140465,0.3703184 0.370318,0.3703184 h 1.264191 c 0.229852,0 0.370318,-0.076618 0.370318,-0.3703184 v -4.44382075 l 2.707155,4.37997275 c 0.166005,0.255392 0.255392,0.4341664 0.574632,0.4341664 h 1.162034 c 0.293701,0 0.370318,-0.1404656 0.370318,-0.3703184 V -3.924748 c 0,-0.2937008 -0.140465,-0.3703184 -0.370318,-0.3703184 z"
         style="fill:#ffffff"
         id="path5094" />
      <path
         d="m 85.635284,1.6172583 c 0,-0.3064704 -0.102157,-0.4341664 -0.383088,-0.4341664 h -1.251421 c -0.280931,0 -0.306471,0.2043136 -0.344779,0.4597056 -0.102157,0.6129408 -0.65125,0.8683328 -1.340808,0.8683328 -0.842794,0 -1.417426,-0.4597056 -1.417426,-1.27696 v -2.6560767 c 0,-0.8044848 0.574632,-1.27696 1.417426,-1.27696 0.689558,0 1.047107,0.191544 1.315268,0.6129408 0.102157,0.1532352 0.114927,0.3958576 0.383088,0.3958576 h 1.225882 c 0.293701,0 0.395858,-0.063848 0.395858,-0.3703184 -0.166005,-1.6217392 -1.736666,-2.426224 -3.320096,-2.426224 -1.519583,0 -3.422253,0.8811024 -3.422253,2.8859296 v 3.0136255 c 0,2.0048272 1.90267,2.8859296 3.422253,2.8859296 1.58343,0 3.320096,-1.0343376 3.320096,-2.681616 z"
         style="fill:#ffffff"
         id="path5096" />
      <path
         d="M 93.322584,2.3195863 H 89.249082 V 0.63399915 h 3.422253 c 0.293701,0 0.370318,-0.1404656 0.370318,-0.3703184 v -0.9960288 c 0,-0.22985279 -0.07662,-0.37031835 -0.370318,-0.37031835 h -3.422253 v -1.3918864 h 3.856419 c 0.293701,0 0.370319,-0.1404656 0.370319,-0.3703184 V -3.924748 c 0,-0.2298528 -0.07662,-0.3703184 -0.370319,-0.3703184 h -5.503697 c -0.293701,0 -0.370319,0.1404656 -0.370319,0.3703184 v 7.6617599 c 0,0.2298528 0.07662,0.3703184 0.370319,0.3703184 h 5.72078 c 0.293701,0 0.370319,-0.1404656 0.370319,-0.3703184 V 2.6899047 c 0,-0.2298528 -0.07662,-0.3703184 -0.370319,-0.3703184 z"
         style="fill:#ffffff"
         id="path5098" />
      <path
         d="m 40.737374,11.654164 h -1.225882 c -0.421397,0 -0.485245,0.280931 -0.574632,0.434166 L 37.174655,15.229652 35.42522,12.08833 c -0.102157,-0.153235 -0.153235,-0.434166 -0.587401,-0.434166 h -1.264191 c -0.293701,0 -0.370318,0.140465 -0.370318,0.370318 v 7.67453 c 0,0.293701 0.140465,0.370318 0.370318,0.370318 h 1.264191 c 0.229852,0 0.370318,-0.07662 0.370318,-0.370318 v -4.328895 l 1.28973,2.23468 c 0.06385,0.102157 0.166004,0.268162 0.357548,0.268162 h 0.63848 c 0.191544,0 0.306471,-0.166005 0.370319,-0.268162 l 1.27696,-2.23468 v 4.328895 c 0,0.293701 0.140465,0.370318 0.370318,0.370318 h 1.225882 c 0.229853,0 0.370318,-0.07662 0.370318,-0.370318 v -7.67453 c 0,-0.229853 -0.07662,-0.370318 -0.370318,-0.370318 z"
         style="fill:#ffffff"
         id="path5100" />
      <path
         d="m 49.599479,14.361319 c 0,-2.017597 -1.91544,-2.88593 -3.435023,-2.88593 -1.519582,0 -3.409483,0.868333 -3.409483,2.88593 v 3.013626 c 0,2.017596 1.889901,2.885929 3.409483,2.885929 1.519583,0 3.435023,-0.868333 3.435023,-2.885929 z m -2.004827,2.834851 c 0,0.817255 -0.587402,1.28973 -1.430196,1.28973 -0.830024,0 -1.417425,-0.472475 -1.417425,-1.28973 v -2.656077 c 0,-0.817254 0.587401,-1.289729 1.417425,-1.289729 0.842794,0 1.430196,0.472475 1.430196,1.289729 z"
         style="fill:#ffffff"
         id="path5102" />
      <path
         d="m 54.464702,11.666933 h -2.86039 c -0.293701,0 -0.370319,0.140466 -0.370319,0.370319 v 7.66176 c 0,0.229853 0.07662,0.370318 0.370319,0.370318 h 2.86039 c 1.519583,0 3.435023,-0.868333 3.435023,-2.87316 v -2.656077 c 0,-1.992057 -1.91544,-2.87316 -3.435023,-2.87316 z m 1.430195,5.350463 c 0,0.817254 -0.587401,1.27696 -1.430195,1.27696 h -1.225881 v -4.852448 h 1.225881 c 0.842794,0 1.430195,0.472475 1.430195,1.27696 z"
         style="fill:#ffffff"
         id="path5104" />
      <path
         d="m 65.625326,18.281586 h -4.073502 v -1.685587 h 3.422253 c 0.293701,0 0.370318,-0.140466 0.370318,-0.370318 v -0.996029 c 0,-0.229853 -0.07662,-0.370319 -0.370318,-0.370319 h -3.422253 v -1.391886 h 3.856419 c 0.293701,0 0.370319,-0.140466 0.370319,-0.370318 v -1.059877 c 0,-0.229853 -0.07662,-0.370319 -0.370319,-0.370319 h -5.503697 c -0.293701,0 -0.370319,0.140466 -0.370319,0.370319 v 7.66176 c 0,0.229853 0.07662,0.370318 0.370319,0.370318 h 5.72078 c 0.293701,0 0.370319,-0.140465 0.370319,-0.370318 v -1.047107 c 0,-0.229853 -0.07662,-0.370319 -0.370319,-0.370319 z"
         style="fill:#ffffff"
         id="path5106" />
    </g>
  </g>
</svg>
