<?xml version="1.0" encoding="UTF-8" standalone="no" ?>
<!DOCTYPE svg PUBLIC "-//W3C//DTD SVG 1.1//EN" "http://www.w3.org/Graphics/SVG/1.1/DTD/svg11.dtd">
<svg xmlns="http://www.w3.org/2000/svg"
    xmlns:xlink="http://www.w3.org/1999/xlink" version="1.1" width="256" height="256" viewBox="0 0 256 256" xml:space="preserve">
    <desc>Created with Fabric.js 4.2.0</desc>
    <defs>
    </defs>
    <g transform="matrix(1 0 0 1 128 128)" id="bd1a0cf8-a69b-471d-97b8-34cd6e7a8771">
        <rect style="stroke: none; stroke-width: 1; stroke-dasharray: none; stroke-linecap: butt; stroke-dashoffset: 0; stroke-linejoin: miter; stroke-miterlimit: 4; fill: rgb(255,255,255); fill-opacity: 0; fill-rule: nonzero; opacity: 1;" vector-effect="non-scaling-stroke" x="-128" y="-128" rx="0" ry="0" width="256" height="256" />
    </g>
    <g transform="matrix(Infinity NaN NaN Infinity 0 0)" id="eeaa111f-eb4a-4b8b-8c51-dfba82e38b0a">
    </g>
    <g transform="matrix(3.35 0 0 3.35 129.77 127.77)" id="97f36620-6fb3-434e-8845-af8e16a6a900">
        <circle style="stroke: rgb(255,191,66); stroke-width: 4; stroke-dasharray: none; stroke-linecap: butt; stroke-dashoffset: 0; stroke-linejoin: miter; stroke-miterlimit: 4; fill: rgb(255,191,66); fill-opacity: 0.47; fill-rule: nonzero; opacity: 1;" vector-effect="non-scaling-stroke" cx="0" cy="0" r="35" />
    </g>
    <g transform="matrix(1.37 0 0 1.37 128 128)" id="004c576c-8b9d-43e8-82fc-210ff8c324bd">
        <path style="stroke: rgb(0,0,0); stroke-width: 0; stroke-dasharray: none; stroke-linecap: butt; stroke-dashoffset: 0; stroke-linejoin: miter; stroke-miterlimit: 4; fill: rgb(255,191,66); fill-rule: nonzero; opacity: 1;" vector-effect="non-scaling-stroke" transform=" translate(-50, -50)" d="M 14.148 44.105 L 18.091 40.162 C 20.01 38.242 23.176000000000002 38.242 25.096 40.162 L 42.164 57.230999999999995 L 74.904 24.440999999999995 C 76.823 22.521999999999995 79.98899999999999 22.521999999999995 81.90899999999999 24.440999999999995 L 85.851 28.383999999999997 C 87.771 30.302999999999997 87.771 33.415 85.851 35.334999999999994 L 45.641 75.54499999999999 L 45.537 75.64899999999999 L 45.433 75.75299999999999 L 45.329 75.80499999999999 L 45.277 75.90899999999999 L 45.173 75.961 L 45.069 76.065 L 44.965 76.117 L 44.861000000000004 76.16900000000001 L 44.757000000000005 76.27400000000002 L 44.653000000000006 76.32400000000001 L 44.54900000000001 76.37800000000001 L 44.44500000000001 76.43000000000002 L 44.34100000000001 76.48200000000003 L 44.23700000000001 76.53400000000003 L 44.08000000000001 76.58600000000004 L 43.97600000000001 76.63800000000005 L 43.872000000000014 76.69000000000005 L 43.768000000000015 76.74200000000006 L 43.664000000000016 76.74200000000006 L 43.56000000000002 76.79400000000007 L 43.405000000000015 76.84700000000007 L 43.301000000000016 76.84700000000007 L 43.19700000000002 76.89900000000007 L 42.93800000000002 76.89900000000007 L 42.83400000000002 76.95100000000008 L 42.62600000000002 76.95100000000008 L 42.47100000000002 77.00300000000009 L 41.795000000000016 77.00300000000009 L 41.640000000000015 76.95100000000008 L 41.432000000000016 76.95100000000008 L 41.32800000000002 76.89900000000007 L 41.06900000000002 76.89900000000007 L 40.96500000000002 76.84700000000007 L 40.86100000000002 76.84700000000007 L 40.70600000000002 76.79400000000007 L 40.60200000000002 76.74200000000006 L 40.49800000000002 76.74200000000006 L 40.39400000000002 76.69000000000005 L 40.29000000000002 76.63800000000005 L 40.185000000000024 76.58600000000004 L 40.081000000000024 76.53400000000003 L 40.029000000000025 76.53400000000003 C 39.563000000000024 76.32500000000003 39.096000000000025 75.96200000000003 38.630000000000024 75.54800000000003 L 14.140000000000025 51.059000000000026 C 12.229 49.137 12.229 46.025 14.148 44.105 z" stroke-linecap="round" />
    </g>
</svg>