<svg width="31" height="28" viewBox="0 0 31 28" fill="none" xmlns="http://www.w3.org/2000/svg">
<path fill-rule="evenodd" clip-rule="evenodd" d="M19.5136 0.119713C18.742 0.323681 18.1686 0.632763 17.6022 1.14999C17.1543 1.55907 16.9365 1.86048 15.7752 3.67955C15.05 4.81535 14.2887 5.94677 14.0835 6.1937C13.1891 7.2703 11.8737 8.07109 10.4459 8.40819C10.1429 8.47977 9.86033 8.53848 9.81798 8.53875C9.77563 8.53902 9.62103 8.33869 9.47449 8.09365C9.01324 7.32242 8.2775 6.77503 7.40259 6.55221C6.8262 6.40541 3.10833 6.40743 2.52946 6.55483C1.3417 6.85738 0.426851 7.75487 0.115794 8.92258C-0.038598 9.5021 -0.038598 24.9496 0.115794 25.5292C0.426851 26.6969 1.3417 27.5944 2.52946 27.8969C2.84878 27.9783 3.36429 28 4.97123 28C7.17692 28 7.45926 27.9665 8.15541 27.6215C8.6347 27.384 9.30756 26.712 9.54624 26.2324C9.65223 26.0194 9.75855 25.8454 9.78251 25.8456C9.80648 25.8458 10.5698 25.8762 11.4788 25.9131C14.3249 26.0287 16.906 26.2901 19.8802 26.7641C21.2736 26.9862 21.4753 27.0027 22.3937 26.9696C23.6023 26.926 24.356 26.7457 25.3938 26.252C27.3951 25.2999 28.9111 23.5249 29.4795 21.4682C29.6663 20.7921 31.0021 12.2934 31 11.7943C30.9954 10.7177 30.4273 9.71866 29.4846 9.12891C28.7254 8.6541 28.68 8.64724 26.0314 8.60811L23.6435 8.5729L24.1945 7.15879C24.8758 5.41042 24.9663 5.02841 24.9205 4.0949C24.8485 2.62867 24.1603 1.43422 22.9447 0.665961C21.9931 0.0645627 20.5757 -0.161088 19.5136 0.119713ZM21.3012 2.25811C21.8232 2.42214 22.3921 2.97681 22.5977 3.52252C22.7187 3.84339 22.7445 4.03052 22.7231 4.43159C22.699 4.88201 22.6008 5.18423 21.8156 7.22613C21.054 9.20662 20.9396 9.55529 20.9682 9.80949C21.004 10.1269 21.1558 10.3695 21.456 10.5889C21.64 10.7233 21.7491 10.7288 24.8728 10.7614C28.0112 10.7941 28.1048 10.7989 28.2938 10.9359C28.5967 11.1555 28.798 11.4912 28.798 11.7769C28.798 12.0814 27.5271 20.1665 27.3805 20.7948C27.2366 21.4114 26.742 22.3642 26.2878 22.8996C25.8147 23.4574 25.2774 23.878 24.5973 24.223C23.2725 24.895 22.3286 24.9746 20.0179 24.6088C16.8963 24.1146 13.3041 23.76 11.4029 23.7583C11.0581 23.758 10.5855 23.7382 10.3527 23.7145L9.9294 23.6712L9.9294 17.1826C9.9294 13.6139 9.94779 10.6941 9.97024 10.6941C9.99269 10.6941 10.3169 10.6331 10.6907 10.5586C12.7047 10.1573 14.5607 9.05396 15.8424 7.49602C16.0629 7.22801 16.8113 6.12084 17.5056 5.03568C18.1999 3.95059 18.8577 2.9628 18.9674 2.84065C19.5197 2.22558 20.4546 1.99219 21.3012 2.25811ZM7.21735 8.77908C7.32188 8.85545 7.47125 9.00157 7.54934 9.10386C7.69085 9.28924 7.69134 9.31557 7.69134 17.2259C7.69134 25.1362 7.69085 25.1625 7.54934 25.3479C7.47125 25.4502 7.32181 25.5963 7.21721 25.6727C7.03507 25.8056 6.94017 25.8115 4.97123 25.8115C3.00228 25.8115 2.90738 25.8056 2.72524 25.6727C2.62064 25.5963 2.4712 25.4502 2.39311 25.3479C2.25187 25.163 2.25098 25.1193 2.23128 17.4061C2.2204 13.1405 2.22935 9.55273 2.25125 9.43341C2.30063 9.16413 2.58951 8.82016 2.86744 8.69976C3.03093 8.62892 3.51511 8.61229 5.05242 8.62448C6.92619 8.63943 7.03706 8.64737 7.21735 8.77908Z" fill="white"/>
</svg>
