<svg width="31" height="28" viewBox="0 0 31 28" fill="none" xmlns="http://www.w3.org/2000/svg">
<path fill-rule="evenodd" clip-rule="evenodd" d="M11.4864 27.8803C12.258 27.6763 12.8314 27.3672 13.3978 26.85C13.8457 26.4409 14.0635 26.1395 15.2248 24.3204C15.95 23.1847 16.7113 22.0532 16.9165 21.8063C17.8109 20.7297 19.1263 19.9289 20.5541 19.5918C20.8571 19.5202 21.1397 19.4615 21.182 19.4612C21.2244 19.461 21.379 19.6613 21.5255 19.9064C21.9868 20.6776 22.7225 21.225 23.5974 21.4478C24.1738 21.5946 27.8917 21.5926 28.4705 21.4452C29.6583 21.1426 30.5731 20.2451 30.8842 19.0774C31.0386 18.4979 31.0386 3.05036 30.8842 2.47084C30.5731 1.30313 29.6583 0.405644 28.4705 0.103094C28.1512 0.0217478 27.6357 -1.61323e-06 26.0288 -1.47275e-06C23.8231 -1.27992e-06 23.5407 0.0335337 22.8446 0.378506C22.3653 0.61601 21.6924 1.28798 21.4538 1.76763C21.3478 1.98055 21.2414 2.15462 21.2175 2.15442C21.1935 2.15422 20.4302 2.12385 19.5212 2.08688C16.6751 1.97133 14.094 1.70985 11.1198 1.23586C9.72643 1.01385 9.52466 0.997347 8.60629 1.03041C7.39767 1.07405 6.64403 1.25431 5.60618 1.74804C3.60487 2.70007 2.08891 4.4751 1.52051 6.53182C1.33369 7.20789 -0.00213158 15.7066 2.78361e-06 16.2057C0.00461675 17.2823 0.572673 18.2813 1.51542 18.8711C2.27457 19.3459 2.32002 19.3528 4.96865 19.3919L7.35649 19.4271L6.80551 20.8412C6.12425 22.5896 6.03369 22.9716 6.07949 23.9051C6.15152 25.3713 6.83974 26.5658 8.05532 27.334C9.00687 27.9354 10.4243 28.1611 11.4864 27.8803ZM9.69882 25.7419C9.17676 25.5779 8.60795 25.0232 8.40225 24.4775C8.28126 24.1566 8.25551 23.9695 8.27692 23.5684C8.30102 23.118 8.39915 22.8158 9.1844 20.7739C9.94603 18.7934 10.0604 18.4447 10.0318 18.1905C9.99603 17.8731 9.84419 17.6305 9.54401 17.4111C9.36001 17.2767 9.25086 17.2712 6.12721 17.2386C2.98875 17.2059 2.89517 17.2011 2.7062 17.0641C2.40327 16.8445 2.20199 16.5088 2.20199 16.2232C2.20199 15.9186 3.47286 7.83347 3.61947 7.2052C3.7634 6.58858 4.25797 5.63582 4.7122 5.10041C5.18529 4.54258 5.72256 4.12198 6.40266 3.77701C7.72753 3.10497 8.67137 3.02544 10.9821 3.39122C14.1037 3.88535 17.6959 4.23996 19.5971 4.24171C19.9419 4.24204 20.4145 4.26177 20.6473 4.28554L21.0706 4.32884L21.0706 10.8174C21.0706 14.3861 21.0522 17.3059 21.0298 17.3059C21.0073 17.3059 20.6831 17.3669 20.3093 17.4414C18.2953 17.8427 16.4393 18.946 15.1576 20.504C14.9371 20.772 14.1887 21.8792 13.4944 22.9643C12.8001 24.0494 12.1423 25.0372 12.0326 25.1593C11.4803 25.7744 10.5454 26.0078 9.69882 25.7419ZM23.7827 19.2209C23.6781 19.1446 23.5288 18.9984 23.4507 18.8961C23.3091 18.7108 23.3087 18.6844 23.3087 10.7741C23.3087 2.86383 23.3091 2.8375 23.4507 2.65212C23.5288 2.54983 23.6782 2.40371 23.7828 2.32735C23.9649 2.19435 24.0598 2.18849 26.0288 2.18849C27.9977 2.18849 28.0926 2.19435 28.2748 2.32735C28.3794 2.40371 28.5288 2.54983 28.6069 2.65212C28.7481 2.83703 28.749 2.88067 28.7687 10.5939C28.7796 14.8595 28.7706 18.4473 28.7487 18.5666C28.6994 18.8359 28.4105 19.1798 28.1326 19.3002C27.9691 19.3711 27.4849 19.3877 25.9476 19.3755C24.0738 19.3606 23.9629 19.3526 23.7827 19.2209Z" fill="white"/>
</svg>
