<svg width="16" height="22" viewBox="0 0 16 22" fill="none" xmlns="http://www.w3.org/2000/svg">
<path d="M8.01287 0C4.82381 0 2.24296 2.44241 2.24296 5.46041V7.50692C1.12309 7.69878 0 7.9546 0 8.28654V18.9668C0 18.9668 0 19.2622 0.350764 19.4023C1.62188 19.8895 6.62269 21.5645 7.77152 21.9482C7.91955 22 7.96138 22 8 22C8.05471 22 8.08045 22 8.22848 21.9482C9.37731 21.5645 14.391 19.8895 15.6621 19.4023C15.9871 19.2744 16 18.979 16 18.979V8.28654C16 7.9546 14.893 7.6866 13.7699 7.50692V5.46041C13.786 2.44241 11.1891 0 8.01287 0ZM8.01287 2.60991C9.8922 2.60991 11.0282 3.68494 11.0282 5.46345V7.24197C8.92035 7.10188 7.12148 7.10188 5.0008 7.24197V5.46345C5.0008 3.68189 6.13677 2.60991 8.01287 2.60991ZM8 9.86102C10.6227 9.86102 12.8238 10.0529 12.8238 10.397V17.0604C12.8238 17.1639 12.8109 17.1761 12.7144 17.2126C12.6211 17.2522 8.24135 18.7475 8.24135 18.7475C8.24135 18.7475 8.06436 18.7993 8.01287 18.7993C7.95817 18.7993 7.78439 18.7353 7.78439 18.7353C7.78439 18.7353 3.40467 17.24 3.31134 17.2004C3.21802 17.1609 3.20193 17.1487 3.20193 17.0482V10.3848C3.17619 10.0407 5.37731 9.86102 8 9.86102Z" fill="currentColor"/>
</svg>