<svg width="30" height="30" viewBox="0 0 30 30" xmlns="http://www.w3.org/2000/svg">
    <path d="M0 15.103C0 6.876 6.67.207 14.897.207s14.896 6.67 14.896 14.896c0 8.228-6.67 14.897-14.896 14.897C6.669 30 0 23.33 0 15.103zm11.334-3.057.1.092a1.096 1.096 0 0 0 1.503-.096l.928-.976.001 10.747c0 .655.508 1.187 1.134 1.187l.124-.007c.568-.064 1.01-.568 1.01-1.18V11.065l.929.977c.441.465 1.16.467 1.603.004a1.228 1.228 0 0 0 .004-1.679l-2.88-3.03a1.092 1.092 0 0 0-1.436-.125l-.15.13-2.874 3.025a1.228 1.228 0 0 0 .004 1.68z" fill="#32F05F" fill-rule="evenodd"/>
</svg>
