<svg width="38" height="40" viewBox="0 0 38 40" fill="none" xmlns="http://www.w3.org/2000/svg">
<path d="M33 26.9096V14.4652C32.9994 13.9196 32.8554 13.3837 32.5824 12.9114C32.3094 12.4391 31.9169 12.0468 31.4444 11.774L20.5556 5.55182C20.0826 5.27876 19.5461 5.13501 19 5.13501C18.4539 5.13501 17.9174 5.27876 17.4444 5.55182L6.55556 11.774C6.08308 12.0468 5.69064 12.4391 5.41761 12.9114C5.14458 13.3837 5.00056 13.9196 5 14.4652V26.9096C5.00056 27.4552 5.14458 27.991 5.41761 28.4633C5.69064 28.9357 6.08308 29.3279 6.55556 29.6007L17.4444 35.8229C17.9174 36.096 18.4539 36.2397 19 36.2397C19.5461 36.2397 20.0826 36.096 20.5556 35.8229L31.4444 29.6007C31.9169 29.3279 32.3094 28.9357 32.5824 28.4633C32.8554 27.991 32.9994 27.4552 33 26.9096Z" fill="#4A4F5F" stroke="white" stroke-width="3" stroke-linecap="round" stroke-linejoin="round"/>
<path d="M5.41997 12.8475L19 20.7031L32.58 12.8475" stroke="white" stroke-width="3" stroke-linecap="round" stroke-linejoin="round"/>
<path d="M19 36.3674V20.6874" stroke="white" stroke-width="3" stroke-linecap="round" stroke-linejoin="round"/>
<path d="M19 20L19 38" stroke="#FF6363" stroke-width="3" stroke-linecap="round" stroke-linejoin="round"/>
<path d="M26 31L19 38L12 31" stroke="#FF6363" stroke-width="3" stroke-linecap="round" stroke-linejoin="round"/>
</svg>
