<svg width="447" height="72" viewBox="0 0 447 72" fill="none" xmlns="http://www.w3.org/2000/svg">
<path d="M465.87 14C424 46.3691 412 -12.6309 336.5 32.8691C297.633 56.2921 201.161 51.6425 165 39.8691C122 25.8691 121.5 0 74 14C18.1742 30.454 -3.59293 0.33332 -1.92627 0V72.0001H465.87V14Z" fill="#5E647B"/>
<path d="M-16.5 9.00004C4.16667 4.33337 10 -4.14286 33 9C80 35.8571 130.515 41.6685 192 16C243.5 -5.49996 294.5 6.00002 360 29C405.102 44.8373 448.667 0.33332 447 0V69.6335H0L-16.5 9.00004Z" fill="#FCEAB6" />
</svg>
