<svg width="447" height="51" viewBox="0 0 447 51" fill="none" xmlns="http://www.w3.org/2000/svg">
<path d="M465.87 14.6309C424 47 412 -12 336.5 33.5C297.633 56.923 201.161 52.2734 165 40.5C122 26.5 117 4.49996 70.5 8.49996C12.5141 13.488 -3.59293 0.964179 -1.92627 0.630859V72.631H465.87V14.6309Z" fill="#5E647B"/>
<path d="M0 12.1334C20.6667 7.46677 63.5 -1.00942 86.5 12.1334C133.5 38.9906 187.015 55.6684 248.5 30C300 8.5 324.19 2.78205 374.5 17C420.5 30 448.667 0.83332 447 0.5V70.1335H0V12.1334Z" fill="#FCEAB6"/>
</svg>
