<svg width="447" height="77" viewBox="0 0 447 77" fill="none" xmlns="http://www.w3.org/2000/svg">
<path d="M465.87 23.6309C446.574 -4.28094 362.074 -2.28092 338.074 3.71906C294.05 14.725 198.574 53.719 164.074 37.7191C122.187 18.2935 122.422 -9.57899 73.0737 5.71909C23.0737 21.2191 -3.59293 9.96422 -1.92627 9.6309V81.631H465.87V23.6309Z" fill="#5E647B"/>
<path d="M0 22.1334C20.6667 17.4667 66.9 10.9334 86.5 22.1334C122 42.4191 195 65.1334 252 30.6334C309 -3.86663 373 -5.86665 412.5 8.13336C444.1 19.3334 448.667 21.4667 447 21.1334V80.1334H0V22.1334Z" fill="#FCEAB6"/>
</svg>
